<svg width="167" height="33" viewBox="0 0 167 33" fill="none" xmlns="http://www.w3.org/2000/svg">
<path d="M16.5 20.625C13.97 20.625 13.75 19.4425 13.75 19.25H11C11 20.515 11.9075 22.7563 15.125 23.265V24.75H17.875V23.265C20.625 22.7975 22 21.0238 22 19.25C22 17.71 21.285 15.125 16.5 15.125C13.75 15.125 13.75 14.2587 13.75 13.75C13.75 13.2413 14.7125 12.375 16.5 12.375C18.2875 12.375 18.4112 13.255 18.425 13.75H21.175C21.1564 12.8133 20.8195 11.9108 20.2197 11.1911C19.6199 10.4713 18.793 9.97719 17.875 9.79V8.25H15.125V9.74875C12.375 10.2025 11 11.9763 11 13.75C11 15.29 11.715 17.875 16.5 17.875C19.25 17.875 19.25 18.81 19.25 19.25C19.25 19.69 18.3975 20.625 16.5 20.625Z" fill="#D0BCFF"/>
<path d="M6.875 2.75H2.75V5.5H5.5V28.875C5.5 29.2397 5.64487 29.5894 5.90273 29.8473C6.16059 30.1051 6.51033 30.25 6.875 30.25H26.125C26.4897 30.25 26.8394 30.1051 27.0973 29.8473C27.3551 29.5894 27.5 29.2397 27.5 28.875V5.5H30.25V2.75H6.875ZM24.75 27.5H8.25V5.5H24.75V27.5Z" fill="url(#paint0_linear_3_3798)"/>
<path d="M44.9375 23V8.45455H55.1648V11.6364H48.8864V14.1364H54.5398V17.3182H48.8864V23H44.9375ZM58.5792 23H54.3178L59.119 8.45455H64.5167L69.3178 23H65.0565L61.8746 12.4602H61.761L58.5792 23ZM57.7837 17.2614H65.7951V20.2159H57.7837V17.2614ZM83.6147 13.9091H79.609C79.5806 13.5777 79.5049 13.277 79.3817 13.0071C79.2634 12.7372 79.0977 12.5052 78.8846 12.3111C78.6763 12.1122 78.4229 11.9607 78.1246 11.8565C77.8263 11.7476 77.4878 11.6932 77.109 11.6932C76.4461 11.6932 75.8851 11.8542 75.4258 12.1761C74.9712 12.4981 74.6256 12.9598 74.3888 13.5611C74.1568 14.1624 74.0408 14.8845 74.0408 15.7273C74.0408 16.6174 74.1592 17.3632 74.396 17.9645C74.6374 18.5611 74.9854 19.0109 75.44 19.3139C75.8945 19.6122 76.4414 19.7614 77.0806 19.7614C77.4452 19.7614 77.7719 19.7164 78.0607 19.6264C78.3496 19.5317 78.6005 19.3968 78.8136 19.2216C79.0266 19.0464 79.1995 18.8357 79.332 18.5895C79.4693 18.3385 79.5617 18.0568 79.609 17.7443L83.6147 17.7727C83.5674 18.3883 83.3945 19.0156 83.0962 19.6548C82.7979 20.2893 82.3742 20.8764 81.8249 21.4162C81.2804 21.9512 80.6057 22.3821 79.8008 22.7088C78.9959 23.0355 78.0607 23.1989 76.9954 23.1989C75.6602 23.1989 74.4622 22.9124 73.4016 22.3395C72.3458 21.7666 71.5101 20.9238 70.8945 19.8111C70.2837 18.6984 69.9783 17.3371 69.9783 15.7273C69.9783 14.108 70.2908 12.7443 70.9158 11.6364C71.5408 10.5237 72.3836 9.68324 73.4442 9.11506C74.5049 8.54214 75.6886 8.25568 76.9954 8.25568C77.9139 8.25568 78.7591 8.38115 79.5309 8.6321C80.3027 8.88305 80.9798 9.25 81.5621 9.73295C82.1445 10.2112 82.6133 10.8007 82.9684 11.5014C83.3235 12.2022 83.5389 13.0047 83.6147 13.9091ZM85.0085 11.6364V8.45455H97.6506V11.6364H93.2756V23H89.3835V11.6364H85.0085ZM107.745 8.45455H111.694V17.7727C111.694 18.8807 111.428 19.8395 110.898 20.6491C110.373 21.4541 109.639 22.0767 108.696 22.517C107.754 22.9527 106.66 23.1705 105.415 23.1705C104.16 23.1705 103.062 22.9527 102.12 22.517C101.177 22.0767 100.444 21.4541 99.918 20.6491C99.3971 19.8395 99.1367 18.8807 99.1367 17.7727V8.45455H103.086V17.4318C103.086 17.8816 103.185 18.2841 103.384 18.6392C103.583 18.9896 103.857 19.2642 104.208 19.4631C104.563 19.6619 104.965 19.7614 105.415 19.7614C105.87 19.7614 106.272 19.6619 106.623 19.4631C106.973 19.2642 107.248 18.9896 107.446 18.6392C107.645 18.2841 107.745 17.8816 107.745 17.4318V8.45455ZM113.57 23V8.45455H119.849C120.928 8.45455 121.873 8.65104 122.683 9.04403C123.492 9.43703 124.122 10.0028 124.572 10.7415C125.022 11.4801 125.246 12.3655 125.246 13.3977C125.246 14.4394 125.014 15.3177 124.55 16.0327C124.091 16.7476 123.445 17.2874 122.612 17.652C121.783 18.0166 120.815 18.1989 119.707 18.1989H115.957V15.1307H118.911C119.375 15.1307 119.771 15.0739 120.097 14.9602C120.429 14.8419 120.682 14.6548 120.857 14.3991C121.037 14.1435 121.127 13.8097 121.127 13.3977C121.127 12.9811 121.037 12.6425 120.857 12.3821C120.682 12.117 120.429 11.9228 120.097 11.7997C119.771 11.6719 119.375 11.608 118.911 11.608H117.519V23H113.57ZM122.093 16.3239L125.729 23H121.44L117.888 16.3239H122.093ZM130.708 23H126.447L131.248 8.45455H136.646L141.447 23H137.185L134.004 12.4602H133.89L130.708 23ZM129.913 17.2614H137.924V20.2159H129.913V17.2614ZM140.614 11.6364V8.45455H153.256V11.6364H148.881V23H144.989V11.6364H140.614ZM154.742 23V8.45455H165.225V11.6364H158.691V14.1364H164.685V17.3182H158.691V19.8182H165.197V23H154.742Z" fill="white"/>
<defs>
<linearGradient id="paint0_linear_3_3798" x1="16.5" y1="2.75" x2="16.5" y2="30.25" gradientUnits="userSpaceOnUse">
<stop stop-color="#6750A4"/>
<stop offset="1" stop-color="#D0BCFF"/>
</linearGradient>
</defs>
</svg>
